<svg width="27" height="27" viewBox="0 0 27 27" fill="none" xmlns="http://www.w3.org/2000/svg">
<path d="M3.83167 22.3046C5.96422 24.429 8.76273 25.7553 11.7576 26.0607C14.7523 26.3659 17.761 25.6317 20.2786 23.981C20.984 23.5147 21.4423 22.756 21.5271 21.9148C21.6117 21.0736 21.3137 20.2386 20.7155 19.6412L20.2131 19.1446L20.876 18.4818C21.306 18.0511 21.5009 17.4391 21.3987 16.839C21.2965 16.2391 20.9102 15.7259 20.3618 15.4618L16.6194 13.6575C16.3297 13.5178 15.9831 13.5802 15.7604 13.8122L14.5893 15.0278H14.5536C12.9826 14.3987 11.7397 13.1505 11.1173 11.5768L12.333 10.3611C12.5584 10.1397 12.6195 9.79984 12.4847 9.5139L10.6715 5.76551C10.407 5.21772 9.89336 4.83183 9.29349 4.73045C8.69342 4.62885 8.08156 4.82396 7.65129 5.2542L6.94383 5.95874C6.14391 6.76014 5.59093 7.77446 5.35121 8.88129C5.11131 9.98812 5.19467 11.1403 5.59152 12.2011C6.30626 14.1074 7.42137 15.8383 8.86154 17.2771C10.302 18.7159 12.0342 19.8291 13.9411 20.5418C15.6318 21.1735 17.5188 20.9938 19.0598 20.0543C19.0899 20.1051 19.1258 20.152 19.1668 20.1941L19.6632 20.6905C19.9456 20.9724 20.0864 21.3662 20.0466 21.7633C20.0068 22.1601 19.7907 22.5182 19.4581 22.7386C17.2279 24.1981 14.5638 24.8469 11.9122 24.5763C9.26048 24.3057 6.78249 23.1322 4.89287 21.2524C3.41533 19.7769 2.3637 17.9296 1.84902 15.9061C1.3344 13.8824 1.37607 11.7573 1.96929 9.75515C2.56272 7.75301 3.6857 5.94848 5.21982 4.53193C7.35631 2.58 10.143 1.49286 13.037 1.48251C15.9309 1.47193 18.7251 2.53891 20.8759 4.47535C22.6174 6.04742 23.838 8.11321 24.3751 10.397C24.9119 12.6807 24.7398 15.0739 23.8812 17.2571C23.7261 17.6397 23.9104 18.0755 24.293 18.2306C24.6753 18.3857 25.1111 18.2014 25.2665 17.819C26.2404 15.3535 26.4375 12.6493 25.8321 10.0682C25.2264 7.48739 23.8468 5.15329 21.8778 3.37796C19.4512 1.19275 16.2985 -0.0113294 13.033 8.03518e-05C9.7675 0.0116961 6.62355 1.23813 4.2121 3.44033C2.48035 5.03752 1.21199 7.07262 0.541277 9.3312C-0.129286 11.5894 -0.177809 13.9869 0.401323 16.2704C0.980425 18.5537 2.16564 20.6391 3.83167 22.3046ZM14.461 19.1507C12.7521 18.5116 11.2001 17.5132 9.91001 16.223C8.61968 14.9328 7.62134 13.3809 6.9823 11.672C6.68704 10.8797 6.62546 10.0196 6.8046 9.19337C6.98375 8.36712 7.39618 7.60987 7.99291 7.01107L8.70037 6.30361C8.77191 6.22918 8.87061 6.18729 8.97385 6.18771H9.04228C9.17186 6.20471 9.28385 6.28641 9.3394 6.40459L10.9177 9.67445L10.0259 10.5663C9.83699 10.758 9.70845 11.0008 9.65558 11.265C9.60271 11.529 9.62821 11.8027 9.72878 12.0525C10.4912 14.0302 12.0403 15.6029 14.0063 16.3953L14.0926 16.4281C14.3522 16.5318 14.6371 16.5554 14.9103 16.4961C15.1836 16.4368 15.4328 16.2971 15.6263 16.0951L16.4614 15.2271L19.7313 16.7996C19.8455 16.855 19.926 16.962 19.9471 17.087C19.9685 17.2121 19.9279 17.3398 19.8383 17.4298L19.1308 18.1372C18.5316 18.7362 17.7729 19.1503 16.9448 19.3299C16.1168 19.5096 15.2547 19.4474 14.461 19.1507Z" fill="#1D2B3A"/>
</svg>
