<svg width="35" height="32" viewBox="0 0 35 32" fill="none" xmlns="http://www.w3.org/2000/svg">
<path d="M29.8777 0.00012207H22.983V4.23317H29.8777V10.5825H34.4744V4.23317C34.4744 3.11041 33.9903 2.03384 33.1282 1.23987C32.2661 0.445908 31.097 0.00012207 29.8777 0.00012207Z" fill="white"/>
<path d="M0.00012207 4.23305V10.5824H4.59679V4.23305H11.4915V0H4.59679C3.37756 0 2.20851 0.445856 1.34636 1.23974C0.484207 2.03363 0.00012207 3.11028 0.00012207 4.23305Z" fill="white"/>
<path d="M4.59666 21.1649H0V27.5143C0 28.637 0.484146 29.7136 1.34624 30.5076C2.20831 31.3015 3.37744 31.7473 4.59666 31.7473H11.4914V27.5143H4.59666V21.1649Z" fill="white"/>
<path d="M29.8777 27.5144H22.983V31.7475H29.8777C31.097 31.7475 32.266 31.3016 33.1282 30.5078C33.9903 29.7138 34.4744 28.6372 34.4744 27.5144V21.165H29.8777V27.5144Z" fill="white"/>
<path d="M14.939 13.7573H19.5356V17.9903H14.939V13.7573Z" fill="white"/>
<path d="M19.5355 9.52423H24.1322V13.7573H19.5355V9.52423Z" fill="white"/>
<path d="M10.3423 9.52423H14.939V13.7573H10.3423V9.52423Z" fill="white"/>
<path d="M19.5355 17.9902H24.1322V22.2233H19.5355V17.9902Z" fill="white"/>
<path d="M10.3423 17.9902H14.939V22.2233H10.3423V17.9902Z" fill="white"/>
</svg>
